<mxfile host="app.diagrams.net" modified="2023-09-08T15:05:49.175Z" agent="Mozilla/5.0 (Windows NT 6.3; Win64; x64) AppleWebKit/537.36 (KHTML, like Gecko) Chrome/114.0.0.0 YaBrowser/23.7.4.971 Yowser/2.5 Safari/537.36" version="21.7.3" etag="e0i6WEjRZ4aeeusNFVed" type="github">
  <diagram name="Страница — 1" id="idIiE3NcrVlOwyhdsuVE">
    <mxGraphModel>
      <root>
        <mxCell id="0" />
        <mxCell id="1" parent="0" />
      </root>
    </mxGraphModel>
  </diagram>
</mxfile>
